<svg width="138" height="187" viewBox="0 0 138 187" fill="none" xmlns="http://www.w3.org/2000/svg">
<path d="M64.0781 0.57811C57.0859 2.76561 50.9141 9.09373 48.4141 16.5937C47.5156 19.289 47.3594 20.4219 47.3594 24.4453C47.3594 28.5469 47.4766 29.4844 48.375 31.9844C51.0312 39.3281 56.5391 45.0703 63.2188 47.4922L65.6797 48.3906L65.7969 51.3984C65.9141 54.7187 65.7969 55.0312 62.9844 58.3515C59.1172 62.8828 51.3047 68.5078 37.75 76.3984C24.6641 84.0547 19 88.0391 13.5703 93.3906C3.96094 102.922 -0.140625 113.469 0.367188 127.18C0.757812 136.32 2.55469 143.625 6.1875 150.773C8.45312 155.227 9.70312 156.555 11.3438 156.125C12.7891 155.773 13.9219 154.523 13.9219 153.273C13.9219 152.727 12.9453 150.305 11.7734 147.922C7.82812 139.875 6.73438 134.914 6.73438 125.227C6.69531 119.523 6.85156 118.117 7.59375 115.305C10.3672 105.109 16.5391 97.4141 28.3359 89.5234C31.4609 87.4141 34.4688 85.6172 47.125 78.1562C56.8125 72.4922 63.1406 67.6875 67.0859 63.039C68.0234 61.9453 68.8828 61.0078 69 61.0078C69.1172 61.0078 69.9766 61.9453 70.9141 63.039C75.25 68.1562 81.3047 72.5312 94.3906 80.1094C116.852 93.0781 125.797 101.281 129.586 112.258C131.188 116.945 131.656 120.5 131.344 126.516C130.719 140.422 126.422 150.93 118.18 158.82L115.094 161.75H61.7344C20.9531 161.75 7.98438 161.867 6.73438 162.219C4.58594 162.844 1.34375 166.086 0.71875 168.234C0.40625 169.25 0.25 172.609 0.25 177.336C0.25 184.758 0.25 184.836 1.22656 185.773L2.16406 186.75H69H135.836L136.773 185.773C137.75 184.836 137.75 184.758 137.75 177.336C137.75 168.352 137.516 167.336 134.82 164.68C132.555 162.375 130.836 161.75 127.047 161.75H124.469L127.164 158.195C131.891 151.984 135.25 144.172 136.812 135.773C137.398 132.805 137.555 130.187 137.516 124.836C137.477 118.586 137.359 117.375 136.5 114.055C134.352 106.047 131.422 100.852 125.523 94.7187C119.273 88.1562 115.445 85.4219 98.6875 75.3437C84.5078 66.8281 79.3125 63.1172 75.1719 58.4297C72.3203 55.1875 72.125 54.7969 72.125 51.9453V49.3281L74.7031 49.0547C83.1016 48.1562 90.6406 42.9609 94.3125 35.5C95.2891 33.5859 96.0703 31.3594 96.2266 30.1875C96.4219 28.4297 96.3438 28.1172 95.4453 27.2187C94.1172 25.8906 93.1016 25.9297 90.9141 27.3359C87.125 29.7578 85.4844 30.2656 81.5 30.3047C78.1406 30.3047 77.5547 30.1875 75.1719 29.0547C71.5391 27.3359 69.2734 25.1484 67.5156 21.5937C66.1484 18.7812 66.0703 18.4297 66.0703 14.914C66.1094 10.8906 66.6172 9.24998 69.0391 5.46092C70.3672 3.35155 70.4453 2.45311 69.3516 1.04686C68.4531 -0.125015 66.7734 -0.281265 64.0781 0.57811ZM59.8203 14.5625C59.8203 18.1562 59.9766 19.4844 60.7188 21.5937C62.9844 28.1562 67.9844 33.1953 74.7031 35.6562C76.5781 36.3594 77.9062 36.5156 81.6172 36.5156L86.2656 36.5547L84.4297 38.1953C77.3203 44.6406 66.3047 44.4062 59.2734 37.7265C51.9688 30.7734 51.4219 19.5625 58.0625 12.0234C58.9609 11.0078 59.7031 10.1875 59.7422 10.1875C59.7812 10.1875 59.8203 12.1797 59.8203 14.5625ZM130.523 168.977C131.461 169.875 131.5 170.109 131.5 175.227V180.5H69H6.5V175.227C6.5 170.109 6.53906 169.875 7.47656 168.977L8.41406 168H69H129.586L130.523 168.977Z" fill="white"/>
</svg>
