<svg width="14" height="15" viewBox="0 0 14 15" fill="none" xmlns="http://www.w3.org/2000/svg">
<path d="M2.05729 9.38141L2.31696 9.12174C2.40075 9.03796 2.44792 8.92433 2.44792 8.80584V6.32422C2.44792 3.74689 4.53726 1.65756 7.11458 1.65755C9.69192 1.65755 11.7812 3.74689 11.7812 6.32422V8.80582C11.7812 8.92431 11.8283 9.03796 11.9121 9.12174L12.1718 9.38144C12.2511 9.46072 12.2913 9.50096 12.323 9.54503C12.3828 9.62844 12.4222 9.72451 12.4388 9.82585C12.4476 9.87947 12.4477 9.93569 12.4477 10.0482C12.4477 10.3052 12.4477 10.4337 12.4128 10.5374C12.3462 10.7346 12.1919 10.8895 11.9946 10.9561C11.8914 10.9909 11.7633 10.9909 11.5083 10.9909H9.11458V11.6576C9.11458 12.7621 8.21915 13.6576 7.11458 13.6576C6.01001 13.6576 5.11458 12.7621 5.11458 11.6576V10.9909H2.72095C2.46593 10.9909 2.33829 10.9909 2.23503 10.9561C2.03778 10.8895 1.88275 10.7346 1.81622 10.5374C1.78125 10.4337 1.78125 10.3052 1.78125 10.0482C1.78125 9.93571 1.78125 9.87947 1.79005 9.82585C1.80668 9.72451 1.84635 9.62847 1.90625 9.54505C1.93794 9.50091 1.97776 9.46094 2.05729 9.38141Z" fill="#0081C6"/>
<path d="M9.11458 10.9909V11.6576C9.11458 12.7621 8.21915 13.6576 7.11458 13.6576C6.01001 13.6576 5.11458 12.7621 5.11458 11.6576V10.9909M9.11458 10.9909H5.11458M9.11458 10.9909H11.5083C11.7633 10.9909 11.8914 10.9909 11.9946 10.9561C12.1919 10.8895 12.3462 10.7346 12.4128 10.5374C12.4477 10.4337 12.4477 10.3052 12.4477 10.0482C12.4477 9.9357 12.4476 9.87947 12.4388 9.82585C12.4222 9.72451 12.3828 9.62844 12.323 9.54503C12.2913 9.50096 12.2511 9.46072 12.1718 9.38144L11.9121 9.12174C11.8283 9.03796 11.7812 8.92431 11.7812 8.80582V6.32422C11.7812 3.74689 9.69192 1.65755 7.11458 1.65755C4.53726 1.65756 2.44792 3.74689 2.44792 6.32422V8.80584C2.44792 8.92433 2.40075 9.03796 2.31696 9.12174L2.05729 9.38141C1.97776 9.46094 1.93794 9.50091 1.90625 9.54505C1.84635 9.62847 1.80668 9.72451 1.79005 9.82585C1.78125 9.87947 1.78125 9.93571 1.78125 10.0482C1.78125 10.3052 1.78125 10.4337 1.81622 10.5374C1.88275 10.7346 2.03778 10.8895 2.23503 10.9561C2.33829 10.9909 2.46593 10.9909 2.72095 10.9909H5.11458M11.127 1C12.0464 1.69288 12.7708 2.61206 13.2295 3.66804M3.10256 1C2.18308 1.69288 1.45872 2.61206 1 3.66804" stroke="#0081C6" stroke-linecap="round" stroke-linejoin="round"/>
</svg>
