<svg width="20" height="20" viewBox="0 0 20 20" fill="none" xmlns="http://www.w3.org/2000/svg">
<path d="M1.83337 10.24C1.83337 10.0734 1.90004 9.92003 2.03337 9.78003C2.18004 9.65336 2.34004 9.5867 2.50004 9.5867H4.05337C4.23337 9.5867 4.38004 9.65336 4.50004 9.78003C4.62004 9.9067 4.68004 10.0667 4.68004 10.24C4.68004 10.4334 4.62004 10.5934 4.50004 10.72C4.44323 10.7817 4.37412 10.8307 4.29719 10.864C4.22026 10.8973 4.1372 10.9141 4.05337 10.9134H2.50004C2.32004 10.9134 2.16671 10.8467 2.03337 10.7134C1.90004 10.5734 1.83337 10.4134 1.83337 10.24ZM4.05337 4.92003C4.05337 4.74003 4.11337 4.5867 4.22671 4.4667C4.38004 4.33336 4.53337 4.2667 4.70004 4.2667C4.87337 4.2667 5.02671 4.33336 5.15337 4.46003L6.24671 5.56003C6.37337 5.7067 6.43337 5.86003 6.43337 6.02003C6.43337 6.2067 6.37337 6.3667 6.25337 6.4867C6.13337 6.6067 5.98671 6.67336 5.81337 6.67336C5.65337 6.67336 5.49337 6.6067 5.34671 6.48003L4.22671 5.4067C4.11337 5.2667 4.05337 5.10003 4.05337 4.92003ZM5.38671 13.92C5.38671 13.7334 5.45337 13.58 5.58004 13.4667C5.70004 13.3534 5.84671 13.2934 6.03337 13.2934H7.78671L9.86004 11.3467C9.92671 11.2934 10 11.2934 10.0867 11.3467L12.1934 13.2934H14.04C14.22 13.2934 14.3734 13.3534 14.5 13.48C14.5617 13.5368 14.6107 13.6059 14.644 13.6829C14.6773 13.7598 14.6941 13.8429 14.6934 13.9267C14.6934 14.1067 14.6267 14.26 14.5 14.3867C14.3734 14.5134 14.22 14.58 14.04 14.58H11.7867C11.72 14.58 11.6534 14.5667 11.5934 14.5334L9.98671 13.02L8.39337 14.5334C8.34004 14.5667 8.28004 14.58 8.20671 14.58H6.03337C5.94742 14.5797 5.86239 14.5623 5.78322 14.5288C5.70404 14.4954 5.6323 14.4465 5.57214 14.3851C5.51199 14.3237 5.46462 14.251 5.43279 14.1712C5.40096 14.0913 5.38529 14.006 5.38671 13.92ZM6.00004 10.24C6.00004 10.8867 6.14004 11.4734 6.41337 12C6.42671 12.08 6.48671 12.12 6.58004 12.12H7.83337C7.88004 12.12 7.91337 12.1 7.93337 12.0667C7.95337 12.0267 7.94671 11.9867 7.92004 11.94C7.49337 11.4267 7.28004 10.86 7.28004 10.24C7.28004 9.49336 7.54671 8.85336 8.08004 8.3267C8.61337 7.80003 9.25337 7.54003 10.0067 7.54003C10.7534 7.54003 11.3867 7.80003 11.9134 8.3267C12.44 8.85336 12.7067 9.4867 12.7067 10.24C12.7067 10.8667 12.4934 11.4334 12.0734 11.94C12.0467 11.9867 12.04 12.0267 12.0534 12.0667C12.0667 12.1067 12.1 12.12 12.1534 12.12H13.42C13.5067 12.12 13.56 12.08 13.5734 12C13.8667 11.4867 14 10.9 14 10.24C14 9.70003 13.8934 9.18003 13.68 8.69336C13.4667 8.20003 13.18 7.78003 12.8267 7.42003C12.4602 7.05744 12.0281 6.76786 11.5534 6.5667C11.06 6.35336 10.5467 6.25336 10.0067 6.25336C9.46671 6.25336 8.94671 6.36003 8.45337 6.5667C7.96004 6.78003 7.53337 7.06003 7.17337 7.42003C6.80144 7.78944 6.50629 8.2288 6.30491 8.71278C6.10354 9.19677 5.99992 9.71582 6.00004 10.24ZM9.35337 4.2667V2.73336C9.35337 2.54003 9.41337 2.3867 9.54004 2.26003C9.66671 2.13336 9.82671 2.07336 10.0134 2.07336C10.2 2.07336 10.3534 2.13336 10.48 2.26003C10.6067 2.3867 10.6667 2.55336 10.6667 2.74003V4.27336C10.6667 4.4667 10.6067 4.62003 10.48 4.7467C10.36 4.8667 10.2 4.93336 10.0134 4.93336C9.92586 4.93667 9.83861 4.92178 9.75714 4.88965C9.67567 4.85752 9.60174 4.80885 9.54004 4.7467C9.47777 4.6837 9.42908 4.6086 9.39697 4.52604C9.36487 4.44348 9.35003 4.35522 9.35337 4.2667ZM13.5867 6.0267C13.5867 5.86003 13.6467 5.7067 13.7667 5.5667L14.8467 4.4667C14.9734 4.34003 15.1334 4.27336 15.3134 4.27336C15.4934 4.27336 15.6534 4.34003 15.7734 4.4667C15.9 4.59336 15.96 4.7467 15.96 4.9267C15.96 5.12003 15.9 5.28003 15.7867 5.41336L14.6667 6.4867C14.5267 6.61336 14.3667 6.68003 14.2 6.68003C14.02 6.68003 13.8734 6.62003 13.76 6.49336C13.6467 6.3667 13.5867 6.21336 13.5867 6.0267ZM15.3267 10.24C15.3267 10.06 15.3867 9.9067 15.5067 9.78003C15.6267 9.65336 15.7734 9.5867 15.9467 9.5867H17.5134C17.6934 9.5867 17.8467 9.65336 17.9734 9.78003C18.0971 9.9038 18.1667 10.0717 18.1667 10.2467C18.1667 10.4217 18.0971 10.5896 17.9734 10.7134C17.8467 10.8467 17.6934 10.9134 17.5134 10.9134H15.9467C15.7667 10.9134 15.62 10.8467 15.5 10.72C15.3867 10.5867 15.3267 10.4267 15.3267 10.24Z" fill="#949494"/>
</svg>
