<svg width="24" height="24" viewBox="0 0 24 24" fill="none" xmlns="http://www.w3.org/2000/svg">
<g clip-path="url(#clip0_35_59)">
<path d="M12 24C12 24 3.59998 13.044 3.59998 8.4C3.59998 7.2969 3.81725 6.20459 4.23939 5.18546C4.66153 4.16632 5.28027 3.24032 6.06028 2.4603C6.84029 1.68029 7.7663 1.06155 8.78543 0.639412C9.80457 0.217272 10.8969 0 12 0C13.1031 0 14.1954 0.217272 15.2145 0.639412C16.2337 1.06155 17.1597 1.68029 17.9397 2.4603C18.7197 3.24032 19.3384 4.16632 19.7606 5.18546C20.1827 6.20459 20.4 7.2969 20.4 8.4C20.4 13.044 12 24 12 24ZM12 10.8C12.6365 10.8 13.2469 10.5471 13.697 10.0971C14.1471 9.64697 14.4 9.03652 14.4 8.4C14.4 7.76348 14.1471 7.15303 13.697 6.70294C13.2469 6.25286 12.6365 6 12 6C11.3635 6 10.753 6.25286 10.3029 6.70294C9.85283 7.15303 9.59998 7.76348 9.59998 8.4C9.59998 9.03652 9.85283 9.64697 10.3029 10.0971C10.753 10.5471 11.3635 10.8 12 10.8Z" fill="#0081C6"/>
</g>
<defs>
<clipPath id="clip0_35_59">
<rect width="24" height="24" fill="white"/>
</clipPath>
</defs>
</svg>
